<svg id="visual" viewBox="0 0 960 540" width="960" height="540" xmlns="http://www.w3.org/2000/svg" xmlns:xlink="http://www.w3.org/1999/xlink" version="1.1"><rect x="0" y="0" width="960" height="540" fill="#1d201f"></rect><defs><linearGradient id="grad1_0" x1="43.8%" y1="100%" x2="100%" y2="0%"><stop offset="14.444444444444446%" stop-color="#1d201f" stop-opacity="1"></stop><stop offset="85.55555555555554%" stop-color="#1d201f" stop-opacity="1"></stop></linearGradient></defs><defs><linearGradient id="grad2_0" x1="0%" y1="100%" x2="56.3%" y2="0%"><stop offset="14.444444444444446%" stop-color="#1d201f" stop-opacity="1"></stop><stop offset="85.55555555555554%" stop-color="#1d201f" stop-opacity="1"></stop></linearGradient></defs><g transform="translate(960, 540)"><path d="M-324 0C-300.2 -27.5 -276.5 -55 -266.3 -86.5C-256.1 -118.1 -259.5 -153.8 -245.1 -178.1C-230.7 -202.4 -198.5 -215.4 -172.8 -237.9C-147.1 -260.3 -127.8 -292.2 -100.1 -308.1C-72.4 -324.1 -36.2 -324 0 -324L0 0Z" fill="#7765e3"></path></g><g transform="translate(0, 0)"><path d="M324 0C321.8 34.6 319.6 69.1 308.1 100.1C296.6 131.1 275.8 158.6 253.2 184C230.6 209.4 206.2 232.8 178.1 245.1C150 257.5 118.1 258.8 87.8 270.1C57.5 281.4 28.7 302.7 0 324L0 0Z" fill="#7765e3"></path></g></svg>